# xmcd CD database file
# Copyright (C) 1993-1998 Ti Kan
#
# Track frame offsets:
#	180
#	12571
#	24824
#	35559
#	47136
#	57952
#	67419
#	78996
#	90462
#	103037
#	112206
#	124999
#	135278
#	145027
#	157178
#	168637
#	178894
#	191614
#	201521
#	213878
#	221960
#	230579
#	240749
#	248246
#
# Disc length: 3415 seconds
#
# Revision: 1
# Processed by: cddbd v1.4b41PL1 Copyright (c) Steve Scherf et al.
# Submitted via: CDValet v3.31 - Copyright (c) 1997 Greg Leichner
#
DISCID=6e0d5518
DTITLE=Jerry Butler and The Impressions - For Your Precious Love
DYEAR=1900
DGENRE=
TTITLE0=For Your Precious Love
TTITLE1=Listen
TTITLE2=A Long Time Ago
TTITLE3=Come Back My Love
TTITLE4=Lovely One
TTITLE5=Sweet Was The Wine
TTITLE6=Love Me
TTITLE7=Shorty's Got To Go
TTITLE8=Give Me Your Love
TTITLE9=At The County Fair
TTITLE10=Say That You Love Me
TTITLE11=Lover's Lane
TTITLE12=Young Lover
TTITLE13=The Gift Of Love
TTITLE14=Senorita I Love You
TTITLE15=Believe In Me
TTITLE16=Don't Drive Me Away
TTITLE17=A New Love
TTITLE18=Let Me Know
TTITLE19=Don't Leave Me
TTITLE20=I Need Your Love
TTITLE21=Lovely One
TTITLE22=What's Her Name
TTITLE23=My Baby Loves Me
EXTD=
EXTT0=
EXTT1=
EXTT2=
EXTT3=
EXTT4=
EXTT5=
EXTT6=
EXTT7=
EXTT8=
EXTT9=
EXTT10=
EXTT11=
EXTT12=
EXTT13=
EXTT14=
EXTT15=
EXTT16=
EXTT17=
EXTT18=
EXTT19=
EXTT20=
EXTT21=
EXTT22=
EXTT23=
PLAYORDER=
